<?xml version="1.0" encoding="UTF-8" standalone="no"?>
<!DOCTYPE svg PUBLIC "-//W3C//DTD SVG 1.1//EN" "http://www.w3.org/Graphics/SVG/1.1/DTD/svg11.dtd">
<svg xmlns="http://www.w3.org/2000/svg" version="1.1" viewBox="0.00 0.00 215.00 203.00">
<path fill="#344183" d="
  M 117.48 51.77
  A 1.17 1.15 81.8 0 0 116.67 52.87
  Q 116.27 95.77 116.39 134.98
  C 116.40 137.98 116.73 141.10 113.11 142.27
  Q 106.38 144.45 101.00 140.77
  Q 99.84 139.98 99.83 138.64
  Q 99.68 95.66 99.65 53.10
  Q 99.65 52.16 98.76 51.86
  Q 97.23 51.35 95.73 51.04
  Q 86.29 49.09 77.72 46.62
  Q 59.23 41.28 36.84 34.97
  A 3.71 3.71 0.0 0 0 32.12 38.54
  L 31.98 189.33
  A 1.02 1.02 0.0 0 1 31.30 190.29
  Q 19.84 194.35 7.80 197.55
  A 0.56 0.55 82.8 0 1 7.11 197.01
  L 7.21 7.27
  A 0.41 0.40 9.4 0 1 7.75 6.89
  L 107.68 41.11
  A 1.84 1.83 -45.2 0 0 108.90 41.10
  Q 122.12 36.47 136.34 31.36
  C 138.19 30.70 140.75 30.16 142.86 29.42
  Q 166.53 21.03 191.73 12.18
  C 197.16 10.28 202.69 9.00 208.04 7.18
  Q 208.72 6.95 208.72 7.66
  L 208.77 167.70
  Q 208.77 169.50 207.53 168.20
  C 205.41 165.99 203.25 163.68 201.33 161.05
  Q 199.47 158.51 196.98 155.31
  Q 186.39 141.68 184.40 125.48
  Q 183.77 120.38 183.87 105.64
  Q 184.10 72.13 183.89 40.24
  C 183.88 37.51 183.84 34.74 179.91 35.20
  Q 177.51 35.48 175.01 36.14
  Q 160.68 39.95 142.51 45.29
  Q 134.93 47.52 128.44 49.20
  C 124.75 50.16 121.10 50.63 117.48 51.77
  Z"
/>
<path fill="#344183" d="
  M 67.09 83.60
  A 2.24 2.23 -48.7 0 0 67.29 86.80
  C 68.95 88.22 70.78 88.65 72.80 89.36
  Q 79.95 91.87 87.81 93.27
  Q 91.11 93.86 91.09 97.81
  Q 90.97 117.12 91.07 134.95
  C 91.08 136.80 89.78 138.89 87.64 138.43
  C 83.14 137.48 78.73 135.76 74.46 134.69
  C 65.44 132.41 58.54 130.31 50.78 127.68
  Q 47.61 126.60 47.56 123.29
  Q 47.49 118.57 47.73 113.55
  Q 47.87 110.44 50.86 111.30
  Q 61.36 114.31 70.06 116.34
  C 77.39 118.05 76.34 106.12 72.06 104.90
  Q 60.58 101.61 49.60 98.33
  A 2.76 2.75 -81.6 0 1 47.64 95.69
  L 47.62 74.61
  A 2.98 2.97 -9.3 0 1 49.66 71.79
  L 87.43 59.34
  A 2.69 2.69 0.0 0 1 90.96 61.69
  Q 91.39 67.51 90.89 73.49
  Q 90.72 75.58 88.57 76.06
  Q 79.25 78.14 70.62 81.30
  Q 68.47 82.08 67.09 83.60
  Z"
/>
<path fill="#344183" d="
  M 148.33 82.30
  Q 138.02 79.27 127.39 76.11
  A 2.83 2.83 0.0 0 1 125.36 73.42
  L 125.29 62.89
  A 3.31 3.30 -80.5 0 1 129.69 59.75
  Q 148.74 66.44 163.05 70.86
  C 165.31 71.56 168.78 71.86 168.87 74.92
  Q 169.18 85.28 169.10 97.73
  A 2.55 2.55 0.0 0 1 166.01 100.21
  Q 161.00 99.12 156.07 97.72
  C 148.70 95.63 157.23 84.91 148.33 82.30
  Z"
/>
<path fill="#344183" d="
  M 141.44 113.12
  C 141.47 115.78 144.11 116.69 146.29 116.11
  Q 155.69 113.62 164.60 111.33
  C 166.39 110.87 168.85 110.96 168.82 113.52
  C 168.77 117.30 168.93 120.87 168.78 124.00
  C 168.66 126.72 166.03 127.65 163.72 128.40
  Q 153.26 131.81 147.03 133.31
  Q 138.76 135.31 131.47 137.68
  Q 129.28 138.40 127.51 138.25
  A 2.49 2.48 2.4 0 1 125.23 135.78
  L 125.29 94.53
  A 3.33 3.33 0.0 0 1 129.47 91.31
  Q 133.23 92.31 137.13 92.99
  C 140.12 93.52 141.36 96.06 141.36 98.86
  Q 141.35 106.01 141.44 113.12
  Z"
/>
<path fill="#344183" d="
  M 184.06 165.34
  Q 184.24 158.71 183.57 152.03
  Q 183.51 151.40 183.81 151.95
  Q 193.70 170.15 208.24 181.26
  Q 208.73 181.63 208.73 182.25
  L 208.75 197.01
  Q 208.75 197.70 208.09 197.53
  Q 204.52 196.66 201.38 195.64
  Q 168.68 185.09 138.44 174.73
  Q 129.89 171.80 122.84 170.88
  Q 108.70 169.03 94.93 170.64
  Q 87.14 171.55 76.25 175.10
  Q 56.40 181.56 38.27 187.55
  Q 37.57 187.79 37.58 187.05
  L 37.82 166.24
  A 0.76 0.74 81.2 0 1 38.32 165.54
  Q 50.31 161.55 61.29 157.71
  Q 65.44 156.26 69.80 155.11
  Q 73.90 154.02 78.22 152.40
  Q 88.15 148.68 97.87 151.15
  Q 102.40 152.31 107.54 154.00
  A 1.99 1.99 0.0 0 0 108.92 153.95
  C 117.83 150.26 127.25 149.00 136.38 151.81
  C 139.89 152.89 143.29 154.31 146.88 155.32
  Q 153.70 157.22 161.83 160.27
  Q 171.87 164.05 182.02 166.84
  A 1.61 1.61 0.0 0 0 184.06 165.34
  Z"
/>
</svg>
